HIERARCHY
ROOT Hips
{
	OFFSET 0.00000 0.00000 0.00000
	CHANNELS 6 Xposition Yposition Zposition Zrotation Yrotation Xrotation 
	JOINT LHipJoint
	{
		OFFSET 0 0 0
		CHANNELS 3 Zrotation Yrotation Xrotation
		JOINT LeftHip
		{
			OFFSET 1.62329 -1.80800 0.67318
			CHANNELS 3 Zrotation Yrotation Xrotation
			JOINT LeftKnee
			{
				OFFSET 2.57139 -7.06484 0.00000
				CHANNELS 3 Zrotation Yrotation Xrotation
				JOINT LeftAnkle
				{
					OFFSET 2.52017 -6.92413 0.00000
					CHANNELS 3 Zrotation Yrotation Xrotation
					JOINT LeftToe
					{
						OFFSET 0.23295 -0.64001 2.10214
						CHANNELS 3 Zrotation Yrotation Xrotation
						End Site
						{
							OFFSET 0.00000 -0.00000 1.10139
						}
					}
				}
			}
		}
	}
	JOINT RHipJoint
	{
		OFFSET 0 0 0
		CHANNELS 3 Zrotation Yrotation Xrotation
		JOINT RightHip
		{
			OFFSET -1.48061 -1.80800 0.67318
			CHANNELS 3 Zrotation Yrotation Xrotation
			JOINT RightKnee
			{
				OFFSET -2.63258 -7.23296 0.00000
				CHANNELS 3 Zrotation Yrotation Xrotation
				JOINT RightAnkle
				{
					OFFSET -2.54779 -7.00000 0.00000
					CHANNELS 3 Zrotation Yrotation Xrotation
					JOINT RightToe
					{
						OFFSET -0.23067 -0.63376 2.12161
						CHANNELS 3 Zrotation Yrotation Xrotation
						End Site
						{
							OFFSET -0.00000 -0.00000 1.11000
						}
					}
				}
			}
		}
	}
	JOINT lowerback
	{
		OFFSET 0 0 0
		CHANNELS 3 Zrotation Yrotation Xrotation
		JOINT Chest
		{
			OFFSET -0.02108 2.07573 -0.16981
			CHANNELS 3 Zrotation Yrotation Xrotation
			JOINT Chest2
			{
				OFFSET 0.05070 2.08439 -0.03141
				CHANNELS 3 Zrotation Yrotation Xrotation
				JOINT lowerneck
				{
					OFFSET 0 0 0
					CHANNELS 3 Zrotation Yrotation Xrotation
					JOINT Neck
					{
						OFFSET -0.10731 1.60408 0.31370
						CHANNELS 3 Zrotation Yrotation Xrotation
						JOINT Head
						{
							OFFSET 0.08411 1.65679 -0.30822
							CHANNELS 3 Zrotation Yrotation Xrotation
							End Site
							{
								OFFSET 0.03911 1.69149 -0.14146
							}
						}
					}
				}
				JOINT LeftCollar
				{
					OFFSET 0 0 0
					CHANNELS 3 Zrotation Yrotation Xrotation
					JOINT LeftShoulder
					{
						OFFSET 3.52315 0.73219 -0.54694
CHANNELS 3 Zrotation Xrotation Yrotation
						JOINT LeftElbow
						{
OFFSET 0 -5.324620 -0.000000
CHANNELS 3 Zrotation Xrotation Yrotation
							JOINT LeftWrist
							{
OFFSET 0 -3.484020 -0.000000
CHANNELS 3 Zrotation Xrotation Yrotation
								JOINT lhand
								{
									OFFSET 0 0 0
CHANNELS 3 Zrotation Xrotation Yrotation
									JOINT LFingers
									{
OFFSET 0 -0.572480 -0.000000
CHANNELS 3 Zrotation Xrotation Yrotation
										End Site
										{
OFFSET 0 -0.461540 -0.000000
										}
									}
								}
								JOINT LThumb
								{
OFFSET 0 0.000000 0.000000
CHANNELS 3 Zrotation Xrotation Yrotation
									End Site
									{
OFFSET 0 -0.468590 0.468590
									}
								}
							}
						}
					}
				}
				JOINT RightCollar
				{
					OFFSET 0 0 0
					CHANNELS 3 Zrotation Yrotation Xrotation
					JOINT RightShoulder
					{
						OFFSET -3.41766 0.93592 -0.10019
CHANNELS 3 Zrotation Xrotation Yrotation
						JOINT RightElbow
						{
OFFSET 0 -5.335890 -0.000000
CHANNELS 3 Zrotation Xrotation Yrotation
							JOINT RightWrist
							{
OFFSET 0 -3.641340 -0.000000
CHANNELS 3 Zrotation Xrotation Yrotation
								JOINT rhand
								{
									OFFSET 0 0 0
CHANNELS 3 Zrotation Xrotation Yrotation
									JOINT RFingers
									{
OFFSET 0 -0.734810 -0.000000
CHANNELS 3 Zrotation Xrotation Yrotation
										End Site
										{
OFFSET 0 -0.592420 -0.000000
										}
									}
								}
								JOINT RThumb
								{
OFFSET 0 0.000000 0.000000
CHANNELS 3 Zrotation Xrotation Yrotation
									End Site
									{
OFFSET 0 -0.601470 0.601470
									}
								}
							}
						}
					}
				}
			}
		}
	}
}
MOTION
Frames: 9
Frame Time: 0.008333333333333333
0.312401 29.185094 -6.872198 6.218785 -48.013178 1.281713 0.000000 0.000000 0.000000 -27.173621 -2.053711 -13.581957 0.901486 6.051023 16.932406 0.103366 -3.494358 -5.849884 0.186424 -2.781076 -7.669922 0.000000 0.000000 0.000000 16.192245 -6.448785 -26.253329 -7.539339 -15.769797 50.886042 -1.271818 -7.634712 -25.316570 -0.269036 -3.336546 9.217280 -3.309166 1.821319 2.816251 0.406621 2.327484 0.188215 2.173236 1.185608 -1.533788 -8.428757 4.180119 -14.377813 -0.411182 8.768222 41.814836 2.808825 1.868063 17.557646 0.000000 0.000000 0.000000 0.954485 1.370039 -11.096105 16.300954 -25.927063 3.776595 14.683640 11.507885 -24.895467 0.000000 0.000000 0.000000 -7.125000 0.000000 0.000000 -15.825188 54.904297 3.922417 0.000000 0.000000 0.000000 -9.096486 -1.166042 9.861328 -20.466783 -31.200719 -5.771210 -21.012691 20.207525 -3.080525 0.000000 0.000000 0.000000 7.125000 0.000000 0.000000 4.265057 26.675164 1.901264
0.270621 29.184677 -6.877107 5.410041 -46.133136 1.612491 0.000000 0.000000 0.000000 -26.578768 -2.667546 -12.970671 0.896302 6.034034 16.883228 0.082146 -4.223395 -5.502282 0.173392 -2.682133 -7.394953 0.000000 0.000000 0.000000 16.245849 -5.372087 -25.610243 -7.567749 -15.791900 50.990163 -1.190976 -6.677332 -24.031438 -0.227054 -3.063728 8.456579 -3.290644 1.654842 3.289151 0.782748 2.095257 0.119714 2.545257 1.077473 -1.868211 -8.404467 4.434024 -14.116853 -0.551815 9.196353 41.624005 2.799933 2.059991 17.371389 0.000000 0.000000 0.000000 0.974990 1.793561 -12.012941 16.799406 -26.592509 3.997148 14.401160 11.060328 -24.857834 0.000000 0.000000 0.000000 -7.125000 0.000000 0.000000 -16.089345 54.813421 3.954456 0.000000 0.000000 0.000000 -9.056325 -0.765840 9.910389 -20.186740 -30.866710 -5.626825 -20.218662 20.527161 -4.122897 0.000000 0.000000 0.000000 7.125000 0.000000 0.000000 4.842755 25.584574 2.284474
0.230996 29.183957 -6.883106 4.973690 -43.944908 1.750857 0.000000 0.000000 0.000000 -26.227255 -3.538426 -12.689465 0.951410 6.211535 17.399468 0.058966 -5.320225 -5.352895 0.166814 -2.630851 -7.252609 0.000000 0.000000 0.000000 16.028246 -4.469978 -24.884733 -7.427461 -15.681436 50.472878 -1.152037 -5.396138 -22.892416 -0.073611 -1.749092 4.812730 -3.363776 1.495515 3.706648 0.995172 1.869867 0.160633 2.807563 0.968936 -2.054173 -8.292588 4.449032 -14.327597 -0.535948 9.256698 41.699893 2.814939 2.107028 17.470906 0.000000 0.000000 0.000000 1.238895 1.680582 -13.008283 17.179457 -27.093654 4.168767 14.151616 11.032959 -24.882572 0.000000 0.000000 0.000000 -7.125000 0.000000 0.000000 -16.353351 54.789303 4.013043 0.000000 0.000000 0.000000 -8.841345 -0.544991 10.370064 -20.000755 -30.643206 -5.531769 -20.165795 18.718074 -6.298859 0.000000 0.000000 0.000000 7.125000 0.000000 0.000000 4.847422 23.278656 2.545924
0.183186 29.181179 -6.892704 3.830372 -41.968527 2.252218 0.000000 0.000000 0.000000 -25.210877 -4.167766 -12.519014 1.027712 6.448500 18.091505 0.036712 -6.429804 -5.404859 0.161182 -2.585731 -7.127471 0.000000 0.000000 0.000000 16.476891 -2.849395 -23.613462 -7.152956 -15.459238 49.450175 -1.235840 -3.967255 -22.770294 -0.019512 -0.871651 2.395904 -2.761757 1.262307 4.091537 1.239792 1.579009 0.244295 2.731637 0.819062 -2.151886 -8.084511 4.566745 -14.193314 -0.673832 9.425333 41.526774 2.739031 2.215342 17.356545 0.000000 0.000000 0.000000 1.705286 1.730335 -13.494930 17.745652 -27.830156 4.429916 13.656801 10.153969 -26.127031 0.000000 0.000000 0.000000 -7.125000 0.000000 0.000000 -17.540164 55.889941 4.792693 0.000000 0.000000 0.000000 -8.318000 -0.576395 9.941192 -19.644217 -30.211041 -5.351243 -19.719573 20.099745 -6.452357 0.000000 0.000000 0.000000 7.125000 0.000000 0.000000 5.174788 23.135990 2.736209
0.134076 29.170395 -6.917479 3.404824 -40.042712 2.468646 0.000000 0.000000 0.000000 -24.693220 -5.060712 -12.557806 1.099975 6.664242 18.724371 0.005877 -7.490065 -5.380623 0.239394 -3.148537 -8.692581 0.000000 0.000000 0.000000 16.452308 -0.897064 -22.628938 -6.805732 -15.165843 48.135319 -1.289493 -3.044387 -22.741658 -0.012169 0.701537 -1.928005 -2.799026 1.224225 4.548073 1.570429 1.522396 0.156077 3.087986 0.799570 -2.505834 -8.810930 4.495622 -14.363333 -0.246785 9.473099 41.893787 3.083906 2.163984 17.526221 0.000000 0.000000 0.000000 1.746010 1.733832 -14.337146 17.792233 -27.890168 4.451646 14.679961 11.004882 -24.634830 0.000000 0.000000 0.000000 -7.125000 0.000000 0.000000 -15.694192 54.650199 3.791111 0.000000 0.000000 0.000000 -8.321493 -0.338548 9.741301 -19.405795 -29.919747 -5.231681 -19.865735 20.113708 -6.075956 0.000000 0.000000 0.000000 7.125000 0.000000 0.000000 5.071430 23.527564 2.635348
0.079060 29.166212 -6.926710 3.453800 -37.687920 2.969293 0.000000 0.000000 0.000000 -24.587650 -6.434734 -12.861357 1.143658 6.790776 19.097049 -0.034706 -8.385804 -5.159128 0.156345 -2.537505 -6.994172 0.000000 0.000000 0.000000 15.806712 1.096230 -21.895877 -6.420686 -14.823579 46.646870 -1.446678 -0.452628 -22.922530 -0.004056 -0.309125 0.849414 -3.031511 0.941616 4.155271 1.592418 1.145011 -0.021624 3.272231 0.616335 -2.445454 -8.646929 4.506982 -14.343867 -0.387989 9.527741 41.854340 3.003832 2.206307 17.519705 0.000000 0.000000 0.000000 2.217603 1.856520 -14.872744 18.203978 -28.417518 4.645977 14.394064 10.965194 -24.579297 0.000000 0.000000 0.000000 -7.125000 0.000000 0.000000 -15.951619 54.541869 3.812846 0.000000 0.000000 0.000000 -7.935114 -0.164263 9.757843 -19.191983 -29.656531 -5.125482 -20.075595 20.519985 -5.420671 0.000000 0.000000 0.000000 7.125000 0.000000 0.000000 4.924735 24.212910 2.480527
0.011059 29.153116 -6.932717 3.253910 -35.621208 3.130526 0.000000 0.000000 0.000000 -24.264943 -7.118554 -12.809877 1.181014 6.896976 19.410580 -0.083410 -9.437787 -5.017430 0.071945 -1.729928 -4.759951 0.000000 0.000000 0.000000 15.569786 3.296604 -20.502792 -5.962080 -14.390884 44.828130 -1.453299 0.425627 -22.673146 -0.028815 0.998210 -2.744976 -3.121275 0.874578 4.194398 1.683107 1.052219 -0.080086 3.422151 0.574163 -2.523903 -8.639482 4.421602 -14.381588 -0.333633 9.429249 41.981186 3.021321 2.177036 17.605243 0.000000 0.000000 0.000000 2.722871 1.883257 -15.560405 18.478411 -28.765409 4.777254 13.982392 10.668534 -24.845328 0.000000 0.000000 0.000000 -7.125000 0.000000 0.000000 -16.502541 54.720957 4.022916 0.000000 0.000000 0.000000 -7.634445 0.153510 9.648533 -19.050959 -29.481946 -5.055877 -19.929191 20.531965 -5.164994 0.000000 0.000000 0.000000 7.125000 0.000000 0.000000 5.038150 24.488936 2.505779
-0.059223 29.147172 -6.934962 3.031835 -33.519854 3.200347 0.000000 0.000000 0.000000 -23.922575 -7.820708 -12.572655 1.209730 6.977574 19.648808 -0.163354 -10.668198 -4.559456 0.064099 -1.630695 -4.486124 0.000000 0.000000 0.000000 15.396638 5.471569 -18.959318 -5.479728 -13.903776 42.854825 -1.453569 0.955810 -22.515312 -0.106047 2.093781 -5.765144 -3.080083 0.683012 4.188348 1.787968 0.801444 -0.023121 3.524253 0.446623 -2.441769 -8.810149 4.432631 -14.327230 -0.264119 9.498243 41.917893 3.091919 2.207515 17.534923 0.000000 0.000000 0.000000 3.208424 1.607400 -15.540302 18.622254 -28.946606 4.846662 13.240359 9.957447 -24.970016 0.000000 0.000000 0.000000 -7.125000 0.000000 0.000000 -17.310055 54.699800 4.219064 0.000000 0.000000 0.000000 -7.402714 0.267702 9.838343 -18.899713 -29.293883 -4.981730 -20.133378 21.076580 -4.659014 0.000000 0.000000 0.000000 7.125000 0.000000 0.000000 4.895019 25.018197 2.373805
-0.134964 29.142915 -6.928813 2.970959 -31.415298 3.401453 0.000000 0.000000 0.000000 -23.689764 -8.555614 -12.451114 1.214781 6.991566 19.690422 -0.255704 -11.993863 -4.178779 0.096426 -2.002218 -5.511866 0.000000 0.000000 0.000000 15.049450 7.854188 -17.552298 -5.030017 -13.416773 40.950755 -1.469546 2.058503 -22.350032 -0.172046 2.670159 -7.361951 -3.183475 0.451171 3.870656 1.894699 0.498173 -0.070779 3.713940 0.295022 -2.288920 -9.272605 4.523408 -14.559946 0.231078 9.692979 42.323226 3.456258 2.259513 17.742757 0.000000 0.000000 0.000000 3.496372 1.640417 -15.437757 18.808390 -29.179850 4.937044 13.440812 10.175957 -24.692541 0.000000 0.000000 0.000000 -7.125000 0.000000 0.000000 -16.966851 54.469463 4.041296 0.000000 0.000000 0.000000 -7.335402 0.542030 10.234347 -18.813590 -29.186405 -4.939676 -20.117283 21.084970 -4.270725 0.000000 0.000000 0.000000 7.125000 0.000000 0.000000 4.915459 25.430479 2.336773
